<?xml version="1.0" encoding="UTF-8" standalone="no"?>
<svg
   xmlns:osb="http://www.openswatchbook.org/uri/2009/osb"
   xmlns:dc="http://purl.org/dc/elements/1.1/"
   xmlns:cc="http://creativecommons.org/ns#"
   xmlns:rdf="http://www.w3.org/1999/02/22-rdf-syntax-ns#"
   xmlns:svg="http://www.w3.org/2000/svg"
   xmlns="http://www.w3.org/2000/svg"
   xmlns:xlink="http://www.w3.org/1999/xlink"
   id="svg8"
   version="1.1"
   viewBox="0 0 348.11329 193.09522"
   height="193.09521mm"
   width="348.11328mm">
  <defs
     id="defs2">
    <linearGradient
       osb:paint="solid"
       id="linearGradient2349">
      <stop
         id="stop2347"
         offset="0"
         style="stop-color:#0745a6;stop-opacity:1;" />
    </linearGradient>
    <linearGradient
       gradientUnits="userSpaceOnUse"
       y2="425.7182"
       x2="233.16992"
       y1="425.7182"
       x1="99.607422"
       id="linearGradient2351"
       xlink:href="#linearGradient2349" />
  </defs>
  <metadata
     id="metadata5">
    <rdf:RDF>
      <cc:Work
         rdf:about="">
        <dc:format>image/svg+xml</dc:format>
        <dc:type
           rdf:resource="http://purl.org/dc/dcmitype/StillImage" />
        <dc:title></dc:title>
      </cc:Work>
    </rdf:RDF>
  </metadata>
  <g
     transform="translate(148.04317,-59.351547)"
     style="display:inline"
     id="layer3">
    <g
       style="fill:#0745a6;fill-opacity:1;stroke:#0745a6;stroke-width:0.98397535;stroke-miterlimit:4;stroke-dasharray:none;stroke-dashoffset:0;stroke-opacity:1"
       transform="matrix(1.0300772,0,0,1.0026787,-3.2601867,-0.14962905)"
       id="g7079">
      <g
         id="flowRoot815-5-2"
         style="font-style:normal;font-variant:normal;font-weight:normal;font-stretch:normal;font-size:192px;line-height:1.25;font-family:'Edwardian Script ITC';-inkscape-font-specification:'Edwardian Script ITC';letter-spacing:0px;word-spacing:0px;display:inline;fill:#0745a6;fill-opacity:1;stroke:#0745a6;stroke-width:0.7607191;stroke-miterlimit:4;stroke-dasharray:none;stroke-dashoffset:0;stroke-opacity:1"
         transform="matrix(1.2943046,0,0,1.292657,-284.55761,-409.58514)"
         aria-label="Vc">
        <path
           id="path7089"
           style="font-style:normal;font-variant:normal;font-weight:normal;font-stretch:normal;font-family:'Edwardian Script ITC';-inkscape-font-specification:'Edwardian Script ITC';fill:#0745a6;fill-opacity:1;stroke:#0745a6;stroke-width:0.7607191;stroke-miterlimit:4;stroke-dasharray:none;stroke-dashoffset:0;stroke-opacity:1"
           d="m 371.98242,365.86151 q 0,2.25 -2.625,2.25 h -1.59375 q -5.15625,-0.5625 -8.4375,-0.5625 -24.1875,0 -57,21.09375 -15.75,10.21875 -26.71875,20.71875 -10.59375,10.3125 -39.75,43.40625 -34.40625,39.1875 -51.84375,51.84375 -9.1875,6.75 -10.125,6.75 -0.5625,0 -0.5625,-0.5625 0,-0.0937 2.0625,-2.90625 16.59375,-21.46875 28.40625,-50.90625 11.90625,-29.4375 11.90625,-49.125 0,-31.6875 -25.6875,-31.6875 -10.125,0 -23.34375,6.9375 -13.21875,6.9375 -24.09375,18 -11.8125,12.09375 -18.9375,27 -7.03125,14.8125 -7.03125,27.75 0,11.625 6.28125,18.375 6.28125,6.75 16.96875,6.75 20.8125,0 40.5,-26.625 14.0625,-19.03125 14.0625,-34.03125 0,-6.75 -3.375,-10.6875 -3.28125,-4.03125 -8.90625,-4.03125 -3.1875,0 -6.375,1.5 -3.09375,1.40625 -3.09375,2.90625 0,0.5625 0.65625,0.5625 h 0.75 q 2.625,-0.375 2.90625,-0.375 4.21875,0 4.21875,4.59375 0,2.90625 -2.25,5.0625 -2.25,2.0625 -5.25,2.0625 -5.8125,0 -5.8125,-6 0,-4.875 4.21875,-8.4375 4.21875,-3.65625 10.03125,-3.65625 6.28125,0 10.125,4.5 3.84375,4.40625 3.84375,11.625 0,18.375 -18.1875,40.3125 -18.5625,22.3125 -38.25,22.3125 -12.375,0 -20.25,-8.625 -7.78125,-8.625 -7.78125,-22.3125 0,-26.0625 26.15625,-51.46875 26.15625,-25.5 52.78125,-25.5 15.84375,0 25.6875,11.0625 9.84375,10.96875 9.84375,28.875 0,19.125 -10.78125,40.21875 -10.78125,21.09375 -34.78125,49.03125 -0.9375,1.125 -0.9375,1.3125 l 0.1875,0.28125 q 1.59375,0 11.71875,-8.71875 7.78125,-6.5625 16.125,-15.65625 7.5,-8.15625 39.5625,-44.625 18.9375,-21.5625 33.375,-33.9375 14.4375,-12.46875 32.34375,-22.6875 29.15625,-16.6875 51.375,-16.6875 7.6875,0 7.6875,2.71875 z" />
        <path
           id="path7091"
           style="font-style:normal;font-variant:normal;font-weight:normal;font-stretch:normal;font-family:'Edwardian Script ITC';-inkscape-font-specification:'Edwardian Script ITC';fill:#0745a6;fill-opacity:1;stroke:#0745a6;stroke-width:0.7607191;stroke-miterlimit:4;stroke-dasharray:none;stroke-dashoffset:0;stroke-opacity:1"
           d="m 290.79492,469.92401 q 0,1.21875 -13.21875,15.75 -14.4375,15.75 -24.5625,15.75 -6.5625,0 -11.25,-4.96875 -4.6875,-5.0625 -4.6875,-12 0,-7.875 6.375,-16.3125 6.375,-8.4375 17.15625,-14.53125 9.09375,-5.25 14.8125,-5.25 6.9375,0 6.9375,8.25 0,6.46875 -4.40625,12.9375 -4.3125,6.46875 -8.625,6.46875 -4.21875,0 -4.21875,-4.21875 0,-4.96875 8.625,-9.1875 6.65625,-3.28125 6.65625,-8.625 0,-4.21875 -4.59375,-4.21875 -7.78125,0 -19.125,15.46875 -11.34375,15.46875 -11.34375,25.96875 0,8.8125 8.25,8.8125 12.9375,0 35.0625,-29.15625 1.21875,-1.5 1.78125,-1.5 0.375,0.0937 0.375,0.5625 z" />
      </g>
      <g
         id="text7035-6"
         style="font-style:normal;font-variant:normal;font-weight:normal;font-stretch:normal;font-size:250.20005798px;line-height:1.25;font-family:'Edwardian Script ITC';-inkscape-font-specification:'Edwardian Script ITC';letter-spacing:0px;word-spacing:0px;display:inline;fill:#0745a6;fill-opacity:1;stroke:#0745a6;stroke-width:0.98397534;stroke-miterlimit:4;stroke-dasharray:none;stroke-dashoffset:0;stroke-opacity:1"
         transform="scale(1.0025394,0.99746704)"
         aria-label="c">
        <path
           id="path7094"
           style="font-style:normal;font-variant:normal;font-weight:normal;font-stretch:normal;font-size:250.20005798px;font-family:'Edwardian Script ITC';-inkscape-font-specification:'Edwardian Script ITC';fill:#0745a6;fill-opacity:1;stroke:#0745a6;stroke-width:0.98397534;stroke-miterlimit:4;stroke-dasharray:none;stroke-dashoffset:0;stroke-opacity:1"
           d="m 149.91633,198.28832 q 0,1.58818 -17.22569,20.52422 -18.81387,20.52423 -32.00801,20.52423 -8.551763,0 -14.660163,-6.47491 -6.1084,-6.59707 -6.1084,-15.6375 0,-10.26211 8.307424,-21.25723 8.307424,-10.99512 22.356739,-18.93604 11.8503,-6.84141 19.30255,-6.84141 9.04043,0 9.04043,10.75078 0,8.42959 -5.7419,16.85919 -5.61972,8.42959 -11.23945,8.42959 -5.49756,0 -5.49756,-5.49756 0,-6.47491 11.23945,-11.97247 8.67393,-4.27588 8.67393,-11.23945 0,-5.49756 -5.98623,-5.49756 -10.13994,0 -24.92227,20.15772 -14.782329,20.15772 -14.782329,33.84053 0,11.4838 10.750779,11.4838 16.85919,0 45.69084,-37.99425 1.58818,-1.95469 2.32119,-1.95469 0.48867,0.12217 0.48867,0.73301 z" />
      </g>
    </g>
  </g>
  <g
     transform="translate(148.04317,-59.351547)"
     style="display:inline"
     id="layer2">
    <g
       id="g7087">
      <g
         id="flowRoot815-3"
         style="font-style:normal;font-variant:normal;font-weight:normal;font-stretch:normal;font-size:192px;line-height:1.25;font-family:'Edwardian Script ITC';-inkscape-font-specification:'Edwardian Script ITC';letter-spacing:0px;word-spacing:0px;display:inline;fill:#00a871;fill-opacity:1;stroke:#0745a6;stroke-width:1.01490724;stroke-miterlimit:4;stroke-dasharray:none;stroke-opacity:1"
         transform="matrix(1.304555,0,0,1.2326564,-290.95751,-384.58934)"
         aria-label="Vc">
        <path
           id="path7097"
           style="font-style:normal;font-variant:normal;font-weight:normal;font-stretch:normal;font-family:'Edwardian Script ITC';-inkscape-font-specification:'Edwardian Script ITC';stroke:#0745a6;stroke-width:1.01490724;stroke-miterlimit:4;stroke-dasharray:none;stroke-opacity:1"
           d="m 371.98242,365.86151 q 0,2.25 -2.625,2.25 h -1.59375 q -5.15625,-0.5625 -8.4375,-0.5625 -24.1875,0 -57,21.09375 -15.75,10.21875 -26.71875,20.71875 -10.59375,10.3125 -39.75,43.40625 -34.40625,39.1875 -51.84375,51.84375 -9.1875,6.75 -10.125,6.75 -0.5625,0 -0.5625,-0.5625 0,-0.0937 2.0625,-2.90625 16.59375,-21.46875 28.40625,-50.90625 11.90625,-29.4375 11.90625,-49.125 0,-31.6875 -25.6875,-31.6875 -10.125,0 -23.34375,6.9375 -13.21875,6.9375 -24.09375,18 -11.8125,12.09375 -18.9375,27 -7.03125,14.8125 -7.03125,27.75 0,11.625 6.28125,18.375 6.28125,6.75 16.96875,6.75 20.8125,0 40.5,-26.625 14.0625,-19.03125 14.0625,-34.03125 0,-6.75 -3.375,-10.6875 -3.28125,-4.03125 -8.90625,-4.03125 -3.1875,0 -6.375,1.5 -3.09375,1.40625 -3.09375,2.90625 0,0.5625 0.65625,0.5625 h 0.75 q 2.625,-0.375 2.90625,-0.375 4.21875,0 4.21875,4.59375 0,2.90625 -2.25,5.0625 -2.25,2.0625 -5.25,2.0625 -5.8125,0 -5.8125,-6 0,-4.875 4.21875,-8.4375 4.21875,-3.65625 10.03125,-3.65625 6.28125,0 10.125,4.5 3.84375,4.40625 3.84375,11.625 0,18.375 -18.1875,40.3125 -18.5625,22.3125 -38.25,22.3125 -12.375,0 -20.25,-8.625 -7.78125,-8.625 -7.78125,-22.3125 0,-26.0625 26.15625,-51.46875 26.15625,-25.5 52.78125,-25.5 15.84375,0 25.6875,11.0625 9.84375,10.96875 9.84375,28.875 0,19.125 -10.78125,40.21875 -10.78125,21.09375 -34.78125,49.03125 -0.9375,1.125 -0.9375,1.3125 l 0.1875,0.28125 q 1.59375,0 11.71875,-8.71875 7.78125,-6.5625 16.125,-15.65625 7.5,-8.15625 39.5625,-44.625 18.9375,-21.5625 33.375,-33.9375 14.4375,-12.46875 32.34375,-22.6875 29.15625,-16.6875 51.375,-16.6875 7.6875,0 7.6875,2.71875 z" />
        <path
           id="path7099"
           style="font-style:normal;font-variant:normal;font-weight:normal;font-stretch:normal;font-family:'Edwardian Script ITC';-inkscape-font-specification:'Edwardian Script ITC';stroke:#0745a6;stroke-width:1.01490724;stroke-miterlimit:4;stroke-dasharray:none;stroke-opacity:1"
           d="m 290.79492,469.92401 q 0,1.21875 -13.21875,15.75 -14.4375,15.75 -24.5625,15.75 -6.5625,0 -11.25,-4.96875 -4.6875,-5.0625 -4.6875,-12 0,-7.875 6.375,-16.3125 6.375,-8.4375 17.15625,-14.53125 9.09375,-5.25 14.8125,-5.25 6.9375,0 6.9375,8.25 0,6.46875 -4.40625,12.9375 -4.3125,6.46875 -8.625,6.46875 -4.21875,0 -4.21875,-4.21875 0,-4.96875 8.625,-9.1875 6.65625,-3.28125 6.65625,-8.625 0,-4.21875 -4.59375,-4.21875 -7.78125,0 -19.125,15.46875 -11.34375,15.46875 -11.34375,25.96875 0,8.8125 8.25,8.8125 12.9375,0 35.0625,-29.15625 1.21875,-1.5 1.78125,-1.5 0.375,0.0937 0.375,0.5625 z" />
      </g>
      <g
         id="text7035"
         style="font-style:normal;font-variant:normal;font-weight:normal;font-stretch:normal;font-size:244.66052246px;line-height:1.25;font-family:'Edwardian Script ITC';-inkscape-font-specification:'Edwardian Script ITC';letter-spacing:0px;word-spacing:0px;fill:#00a871;fill-opacity:1;stroke:#0745a6;stroke-width:1.29649329;stroke-miterlimit:4;stroke-dasharray:none;stroke-opacity:1"
         transform="scale(1.0367129,0.9645872)"
         aria-label="c">
        <path
           id="path7102"
           style="font-style:normal;font-variant:normal;font-weight:normal;font-stretch:normal;font-size:244.66052246px;font-family:'Edwardian Script ITC';-inkscape-font-specification:'Edwardian Script ITC';fill:#00a871;fill-opacity:1;stroke:#0745a6;stroke-width:1.29649329;stroke-miterlimit:4;stroke-dasharray:none;stroke-opacity:1"
           d="m 142.30591,201.51479 q 0,1.55302 -16.8443,20.06981 -18.39733,20.06981 -31.299346,20.06981 -8.36242,0 -14.335577,-6.33155 -5.973158,-6.45101 -5.973158,-15.29128 0,-10.03491 8.123494,-20.78659 8.123494,-10.75168 21.861757,-18.51679 11.58792,-6.68993 18.87518,-6.68993 8.84027,0 8.84027,10.51275 0,8.24296 -5.61477,16.48592 -5.4953,8.24295 -10.99061,8.24295 -5.37584,0 -5.37584,-5.37584 0,-6.33154 10.99061,-11.70739 8.48188,-4.18121 8.48188,-10.99061 0,-5.37584 -5.85369,-5.37584 -9.91544,0 -24.370483,19.71142 -14.455041,19.71142 -14.455041,33.09129 0,11.22954 10.512757,11.22954 16.485917,0 44.679217,-37.15304 1.55302,-1.91141 2.2698,-1.91141 0.47785,0.11946 0.47785,0.71678 z" />
      </g>
    </g>
  </g>
</svg>
